<svg xmlns="http://www.w3.org/2000/svg" viewBox="0 0 56.69 56.69"><defs><style>.cls-1{fill:#e59a50;}.cls-2{fill:#b35d24;}</style></defs><title>Icons</title><g id="Ebene_1" data-name="Ebene 1"><path class="cls-1" d="M55.26,13.81c3.43,5.92-7.86,14.1-22.66,22.67S5.08,50.77,1.66,44.85,5.38,23.61,20.18,15s31.65-7.15,35.08-1.23Zm0,0"/><path class="cls-2" d="M21.76,25.53a1.14,1.14,0,0,0,.63-2,34.58,34.58,0,0,0-7.09-5.26,45.08,45.08,0,0,0-5.05,4.49c2.24,2.14,6.05,3.54,11.51,2.73Zm0,0"/><path class="cls-2" d="M12.25,33.32a.86.86,0,0,0,.47-1.48,23.46,23.46,0,0,0-6.35-4.43,37.27,37.27,0,0,0-2.56,4c1.7,1.51,4.49,2.47,8.44,1.89Zm0,0"/><path class="cls-2" d="M32.73,17.68l-.46-.63-.16-.2-.37-.48-.24-.31-.33-.42-.31-.37-.32-.39-.36-.4-.32-.37-.4-.42-.33-.35-.42-.43-.35-.34-.45-.41-.23-.22h0l-.3-.27A46.52,46.52,0,0,0,21,14.6a11.94,11.94,0,0,0,7.64,4.51h0l.89.16.12,0,.85.1.19,0c.35,0,.7.06,1.07.08A1.15,1.15,0,0,0,32.73,17.68Z"/><path class="cls-2" d="M43,14.52a.86.86,0,0,0,.88-1.27A28.27,28.27,0,0,0,40.9,9a39.06,39.06,0,0,0-5.82.59c1,2.2,3.49,4.26,7.87,4.92Zm0,0"/></g></svg>