<svg xmlns="http://www.w3.org/2000/svg" viewBox="0 0 56.69 56.69"><defs><style>.cls-1{fill:#ededed;}.cls-2{fill:#dadada;}.cls-3{fill:#12b09b;}.cls-4{fill:#f6f6f6;}</style></defs><title>ic_damenhygiene</title><g id="Ebene_1" data-name="Ebene 1"><path class="cls-1" d="M48,21c.12-.24.28-.47.4-.71A11.18,11.18,0,1,0,28.52,10l-.15.32c-1.66,3.2-4.45,11-6,14.06s-6.42,10-8,13.11l-.17.31A11.19,11.19,0,0,0,34,48.12c.12-.24.22-.5.34-.74,1.54-3,4.31-10.73,5.85-13.71S46.4,24.08,48,21Z"/><path class="cls-2" d="M17.49,40.25a.63.63,0,0,1-.3-.07.68.68,0,0,1-.29-.91,1,1,0,0,1,.1-.17l.07-.14c.83-1.59,2.47-4.16,4.07-6.64s3.18-4.95,4-6.46S27,21.65,28,19s2.25-5.58,3.1-7.22l.07-.14.09-.19a.67.67,0,0,1,.9-.28.67.67,0,0,1,.29.9l-.07.14-.09.18c-.82,1.59-1.95,4.4-3.05,7.11s-2.18,5.41-3,7-2.44,4.11-4,6.57-3.21,5-4,6.54a1.62,1.62,0,0,1-.1.18l-.07.13A.67.67,0,0,1,17.49,40.25Z"/><path class="cls-2" d="M30.63,47.05a.7.7,0,0,1-.31-.07.69.69,0,0,1-.28-.91l.07-.14.08-.18c.8-1.54,1.93-4.34,3-7s2.23-5.51,3-7.08,2.33-3.92,4-6.44,3.22-5,4-6.6l.09-.18.08-.13a.67.67,0,1,1,1.19.61l-.1.18-.07.14c-.86,1.64-2.51,4.22-4.11,6.7s-3.12,4.85-3.89,6.34-1.91,4.28-3,7-2.25,5.56-3.07,7.16l-.07.13-.09.19A.67.67,0,0,1,30.63,47.05Z"/><path class="cls-3" d="M19.46,39.94a5.9,5.9,0,0,1-5.9-5.9V31.13h0V29a.47.47,0,0,1,.47-.47.48.48,0,0,1,.48.47v5.18a5,5,0,0,0,9.91-.1V22.67a5.91,5.91,0,0,1,5.9-5.9.47.47,0,1,1,0,.94,5,5,0,0,0-4.95,5V34A5.91,5.91,0,0,1,19.46,39.94Z"/><path class="cls-4" d="M18.12,8.26a3.91,3.91,0,0,0-7.82,0h0V28.39a.89.89,0,0,0,.89.89h6a.89.89,0,0,0,.89-.89V8.26Z"/><path class="cls-2" d="M12.19,28.29a.31.31,0,0,1-.31-.32V9.7a.32.32,0,1,1,.63,0V28A.32.32,0,0,1,12.19,28.29Z"/><path class="cls-2" d="M14.21,28.29A.31.31,0,0,1,13.9,28V9.7a.31.31,0,0,1,.31-.32.32.32,0,0,1,.32.32V28A.32.32,0,0,1,14.21,28.29Z"/><path class="cls-2" d="M16.23,28.33a.31.31,0,0,1-.32-.31V9.74a.32.32,0,0,1,.63,0V28A.31.31,0,0,1,16.23,28.33Z"/></g></svg>