<svg xmlns="http://www.w3.org/2000/svg" viewBox="0 0 56.69 56.69"><defs><style>.cls-1{fill:#ededed;}.cls-2{fill:#9d9d9c;}.cls-3{fill:#69b75f;}.cls-4{fill:#fff;}.cls-5{fill:#878787;}</style></defs><title>Icons</title><g id="Ebene_1" data-name="Ebene 1"><path class="cls-1" d="M33.1,54.15,31.38,29.6a4.53,4.53,0,0,0-2-3.68c-1.46-.81-1.81-2.06-2.09-3.49-.38-2-1.43-7.89-1.43-7.89a1.83,1.83,0,0,0-1.82-1.82h-5.9a1.83,1.83,0,0,0-1.82,1.82L9.49,54.21A1.83,1.83,0,0,0,11.31,56H30.89a1.69,1.69,0,0,0,.45-.07A1.82,1.82,0,0,0,33.1,54.15Z"/><rect class="cls-2" x="30.89" y="3.41" width="2.28" height="3.91"/><path class="cls-2" d="M25.17,3.41H21.74C18.9,3.41,16.5,5,16.5,8.65v4.22h9.33s0-2.3,0-2.35c0-2.82,4.7-3.2,4.7-3.2V3.41Z"/><path class="cls-2" d="M28.69,14.23,24.43,8.85a.66.66,0,0,1,.19-.93l.82-.55a.68.68,0,0,1,.94.19l3.31,6a.68.68,0,0,1-.19.94l.13-.09A.68.68,0,0,1,28.69,14.23Z"/><path class="cls-3" d="M52,4.49h0L34,5.6a.29.29,0,0,1,0-.57h0L52,3.92a.28.28,0,0,1,.3.27A.29.29,0,0,1,52,4.49Z"/><path class="cls-3" d="M49.29,10.23a.18.18,0,0,1-.1,0L33.85,5.59a.29.29,0,0,1-.19-.36A.27.27,0,0,1,34,5L49.36,9.68a.28.28,0,0,1,.19.35A.28.28,0,0,1,49.29,10.23Z"/><path class="cls-3" d="M34,5.6a.3.3,0,0,1-.3-.21A.29.29,0,0,1,33.86,5L47.08,1.53a.28.28,0,0,1,.35.2.29.29,0,0,1-.2.35L34,5.59Z"/><path class="cls-3" d="M48.34,7.74h-.06L33.89,5.6A.29.29,0,0,1,34,5L48.36,7.17a.29.29,0,0,1,0,.57Z"/><path class="cls-3" d="M51.16,6.21h0L33.92,5.6a.29.29,0,0,1,0-.57l17.21.61a.3.3,0,0,1,.28.3A.28.28,0,0,1,51.16,6.21Z"/><path class="cls-3" d="M34,5.6a.28.28,0,0,1-.3-.24A.29.29,0,0,1,33.88,5L50.21,2.29a.29.29,0,0,1,.09.57L34,5.6Z"/><path class="cls-3" d="M18.56,38.42c-2.25.75-4.42-.23-5.93-1.25l-3.14,17A1.83,1.83,0,0,0,11.31,56H30.89a1.69,1.69,0,0,0,.45-.07,1.82,1.82,0,0,0,1.76-1.81L31.88,37.33a17.82,17.82,0,0,1-3.39-.65C23.9,35.31,22.66,37.05,18.56,38.42Z"/><circle class="cls-4" cx="36.83" cy="40.55" r="9.86"/><path class="cls-3" d="M40.65,41a.83.83,0,0,0,.47.16l.16,0a.73.73,0,0,0,.42-.38.16.16,0,1,0-.29-.13.38.38,0,0,1-.22.2.44.44,0,0,1-.36-.09,1,1,0,0,0-.86-.13c0-.18-.06-.37-.08-.56a.73.73,0,0,1,.58-.06.71.71,0,0,0,.64,0,.76.76,0,0,0,.3-.47.16.16,0,0,0-.14-.18.17.17,0,0,0-.18.13.41.41,0,0,1-.15.26.49.49,0,0,1-.38,0,1,1,0,0,0-.73,0l-.09-.48a.7.7,0,0,1,.6-.07.77.77,0,0,0,.64,0,.68.68,0,0,0,.3-.48.15.15,0,0,0-.13-.17.15.15,0,0,0-.18.13.4.4,0,0,1-.16.25.42.42,0,0,1-.37,0,1,1,0,0,0-.77,0c0-.21-.09-.41-.15-.62a.7.7,0,0,1,.52,0,.67.67,0,0,0,1-.52.17.17,0,0,0-.14-.18.16.16,0,0,0-.18.14.42.42,0,0,1-.15.25.45.45,0,0,1-.38,0,1,1,0,0,0-.7,0c0-.17-.1-.33-.16-.49a.75.75,0,0,1,.52,0,.66.66,0,0,0,.94-.51.16.16,0,0,0-.14-.18.17.17,0,0,0-.18.13.37.37,0,0,1-.15.26.49.49,0,0,1-.38,0,1,1,0,0,0-.72,0,6.1,6.1,0,0,0-.32-.68.68.68,0,0,1,.55,0,.74.74,0,0,0,.64,0,.7.7,0,0,0,.3-.48.16.16,0,0,0-.13-.18.16.16,0,0,0-.18.13.4.4,0,0,1-.16.26.47.47,0,0,1-.37,0,1,1,0,0,0-.81.07,5.48,5.48,0,0,0-.34-.46.72.72,0,0,1,.7-.15.67.67,0,0,0,1-.51.16.16,0,0,0-.32,0,.38.38,0,0,1-.15.25.44.44,0,0,1-.38,0,1.07,1.07,0,0,0-1,.22,3.12,3.12,0,0,0-.4-.32.66.66,0,0,1,.46-.32.77.77,0,0,0,.54-.35.72.72,0,0,0,0-.56.16.16,0,0,0-.21-.09.16.16,0,0,0-.09.2.42.42,0,0,1,0,.3.48.48,0,0,1-.32.19,1,1,0,0,0-.68.48,2.76,2.76,0,0,0-.51-.16.72.72,0,0,1,.18-.62.73.73,0,0,0,.23-.6.71.71,0,0,0-.31-.47.15.15,0,0,0-.22.05.16.16,0,0,0,0,.21.46.46,0,0,1,.17.25.46.46,0,0,1-.15.34,1,1,0,0,0-.27.79h-.44l-.12,0a.67.67,0,0,1,0-.61.76.76,0,0,0,0-.64.73.73,0,0,0-.45-.35.17.17,0,0,0-.19.12.16.16,0,0,0,.12.19.44.44,0,0,1,.24.18.49.49,0,0,1,0,.37,1,1,0,0,0,0,.84,1.17,1.17,0,0,0-.37.3.69.69,0,0,1-.31-.5.73.73,0,0,0-.32-.55.69.69,0,0,0-.56-.06.15.15,0,0,0-.1.19.16.16,0,0,0,.2.11.42.42,0,0,1,.3,0,.43.43,0,0,1,.17.33,1,1,0,0,0,.45.72,1.88,1.88,0,0,0-.13.38.65.65,0,0,1-.44-.26.73.73,0,0,0-.56-.32.69.69,0,0,0-.51.23.16.16,0,0,0,0,.22.15.15,0,0,0,.22,0,.39.39,0,0,1,.26-.12h0a.43.43,0,0,1,.31.2,1,1,0,0,0,.64.37A3.09,3.09,0,0,0,35,37a.7.7,0,0,1-.55-.13.67.67,0,0,0-1.06.2.17.17,0,0,0,.08.21.16.16,0,0,0,.21-.07.38.38,0,0,1,.23-.19.4.4,0,0,1,.35.11,1.08,1.08,0,0,0,.61.2l.17,0a5.76,5.76,0,0,0,.13.62.66.66,0,0,1-.53,0,.73.73,0,0,0-.64,0,.69.69,0,0,0-.36.44.16.16,0,0,0,.12.19h0a.15.15,0,0,0,.15-.11.38.38,0,0,1,.18-.23.44.44,0,0,1,.38,0,1,1,0,0,0,.75,0c.07.2.14.4.22.61a.63.63,0,0,1-.44,0,.73.73,0,0,0-.64,0,.7.7,0,0,0-.36.43.17.17,0,0,0,.12.2h0a.16.16,0,0,0,.15-.12.44.44,0,0,1,.18-.23.48.48,0,0,1,.38,0,1,1,0,0,0,.7.05l.06.15a2.4,2.4,0,0,1,.2.67.69.69,0,0,1-.58-.19.78.78,0,0,0-.6-.24.71.71,0,0,0-.47.31.15.15,0,0,0,0,.21.16.16,0,0,0,.22,0,.38.38,0,0,1,.25-.16.46.46,0,0,1,.34.15,1,1,0,0,0,.71.28h.09a1.75,1.75,0,0,1-.36.92.71.71,0,0,1-.4-.37.73.73,0,0,0-.46-.45.68.68,0,0,0-.55.1.15.15,0,0,0,0,.22.15.15,0,0,0,.21,0,.4.4,0,0,1,.3,0c.1,0,.18.12.25.27a1.08,1.08,0,0,0,.49.5c-.14.16-.3.32-.46.48a.72.72,0,0,1-.47-.4.77.77,0,0,0-.47-.45.75.75,0,0,0-.55.1.16.16,0,1,0,.18.26.42.42,0,0,1,.29,0,.46.46,0,0,1,.26.27,1,1,0,0,0,.51.51,7.4,7.4,0,0,0-.55.57.74.74,0,0,1-.5-.38.78.78,0,0,0-.48-.42.73.73,0,0,0-.55.13.17.17,0,0,0,0,.23.17.17,0,0,0,.22,0A.4.4,0,0,1,33,42.2a.48.48,0,0,1,.27.26,1.06,1.06,0,0,0,.57.49,2.09,2.09,0,0,0-.3.62.62.62,0,0,1-.34-.14.67.67,0,0,0-1.06.18.15.15,0,0,0,.07.21.16.16,0,0,0,.21-.06.38.38,0,0,1,.23-.19.41.41,0,0,1,.36.12,1,1,0,0,0,.47.19,1.9,1.9,0,0,0,.06.7.7.7,0,0,1-.64,0,.78.78,0,0,0-.65,0,.75.75,0,0,0-.34.45.17.17,0,0,0,.12.19h0a.16.16,0,0,0,.15-.12.44.44,0,0,1,.18-.24.49.49,0,0,1,.37,0,1,1,0,0,0,.87,0,3.33,3.33,0,0,0,.25.5.73.73,0,0,1-.59.23.72.72,0,0,0-.61.19.7.7,0,0,0-.19.53.16.16,0,0,0,.16.14h0a.16.16,0,0,0,.15-.17.42.42,0,0,1,.09-.28.42.42,0,0,1,.37-.09,1,1,0,0,0,.79-.27,2.47,2.47,0,0,0,.4.44.68.68,0,0,1-.41.26.78.78,0,0,0-.54.36.75.75,0,0,0,0,.56.18.18,0,0,0,.15.1h.06a.17.17,0,0,0,.09-.21.37.37,0,0,1,0-.29.45.45,0,0,1,.33-.2,1,1,0,0,0,.6-.39,1.75,1.75,0,0,0,.52.2.66.66,0,0,1-.22.22.75.75,0,0,0-.37.53.69.69,0,0,0,.18.53.16.16,0,0,0,.11.05.15.15,0,0,0,.11,0,.17.17,0,0,0,0-.23.39.39,0,0,1-.1-.28.47.47,0,0,1,.23-.29,1,1,0,0,0,.4-.47,2.5,2.5,0,0,0,.54-.07.67.67,0,0,1-.16.36.77.77,0,0,0-.21.61.69.69,0,0,0,.33.45.11.11,0,0,0,.08,0,.14.14,0,0,0,.13-.07.16.16,0,0,0-.05-.22.38.38,0,0,1-.17-.24.43.43,0,0,1,.13-.35.94.94,0,0,0,.24-.67,3.6,3.6,0,0,0,.52-.26.7.7,0,0,1-.06.34.65.65,0,0,0,.42,1h0a.16.16,0,0,0,.15-.12.17.17,0,0,0-.12-.2.36.36,0,0,1-.23-.18.41.41,0,0,1,0-.37,1.07,1.07,0,0,0,.06-.65q.2-.14.39-.3a.69.69,0,0,1,.11.45.74.74,0,0,0,.19.62.69.69,0,0,0,.48.18h.05a.16.16,0,0,0,0-.32.34.34,0,0,1-.37-.45,1,1,0,0,0-.2-.69l.44-.44a.66.66,0,0,1,.19.4.73.73,0,0,0,.3.57.66.66,0,0,0,.36.1.49.49,0,0,0,.2,0,.16.16,0,0,0,.11-.2.16.16,0,0,0-.2-.1.36.36,0,0,1-.46-.37,1,1,0,0,0-.29-.61c.14-.17.27-.34.4-.52a.69.69,0,0,1,.32.52.77.77,0,0,0,.31.57.72.72,0,0,0,.35.1.8.8,0,0,0,.2,0,.16.16,0,0,0,.11-.2.17.17,0,0,0-.2-.11.34.34,0,0,1-.29,0,.44.44,0,0,1-.16-.34,1,1,0,0,0-.47-.74c.11-.17.21-.35.31-.52a.68.68,0,0,1,.38.44.75.75,0,0,0,.41.51.66.66,0,0,0,.23,0,.84.84,0,0,0,.33-.07.17.17,0,0,0,.07-.22.17.17,0,0,0-.22-.06.39.39,0,0,1-.29,0,.43.43,0,0,1-.22-.3,1,1,0,0,0-.55-.62c.08-.17.15-.35.21-.52a.71.71,0,0,1,.5.4.75.75,0,0,0,.47.43.39.39,0,0,0,.15,0,.67.67,0,0,0,.4-.13.16.16,0,0,0-.18-.26.44.44,0,0,1-.29.07.46.46,0,0,1-.26-.27,1,1,0,0,0-.69-.55A3.72,3.72,0,0,0,40,41.8a.69.69,0,0,1,.54.26.75.75,0,0,0,.56.31h0a.75.75,0,0,0,.51-.24.17.17,0,0,0,0-.23.17.17,0,0,0-.22,0,.42.42,0,0,1-.27.13h0a.46.46,0,0,1-.32-.2,1.06,1.06,0,0,0-.75-.37c0-.12,0-.24,0-.35l0-.21A.72.72,0,0,1,40.65,41Z"/><path class="cls-5" d="M36.83,30.37A10.18,10.18,0,1,0,47,40.55,10.19,10.19,0,0,0,36.83,30.37Zm0,1A9.15,9.15,0,0,1,43,33.74l-13,13a9.2,9.2,0,0,1,6.82-15.4Zm0,18.43a9.15,9.15,0,0,1-6.13-2.35l13-13a9.2,9.2,0,0,1-6.86,15.34Z"/></g></svg>