<svg xmlns="http://www.w3.org/2000/svg" viewBox="0 0 56.69 56.69"><defs><style>.cls-1{fill:#6daabf;}.cls-2{fill:#5d9da8;}.cls-3{fill:#407c8c;}.cls-4{fill:#706f6f;}.cls-5{fill:#fff;}</style></defs><title>Icons</title><g id="Ebene_1" data-name="Ebene 1"><path class="cls-1" d="M52.41,31.07a4.56,4.56,0,0,1-4.56,4.56H8.9a4.56,4.56,0,0,1-4.56-4.56V17.25A4.56,4.56,0,0,1,8.9,12.7h39a4.56,4.56,0,0,1,4.56,4.55Z"/><path class="cls-2" d="M52.41,31.76a4.06,4.06,0,0,1-1.9,3.44l-.12.07a4,4,0,0,1-2,.56H8.41a4,4,0,0,1-2.06-.56l-.12-.07a4.08,4.08,0,0,1-1.89-3.44v-.31a6.21,6.21,0,0,0,4.56,2h39a6.21,6.21,0,0,0,4.56-2Z"/><path class="cls-3" d="M38.47,44H18.28c-4.62,0-9.65-3.81-11.12-8.37a5.7,5.7,0,0,0,1.25.14H48.34a5.77,5.77,0,0,0,1.25-.14C48.11,40.19,43.09,44,38.47,44Z"/><path class="cls-3" d="M27.23,15a.8.8,0,0,0-1.12-.2L10.08,26a.8.8,0,0,0-.19,1.12.79.79,0,0,0,.65.34.78.78,0,0,0,.46-.14L27,16.09A.79.79,0,0,0,27.23,15Z"/><path class="cls-3" d="M31.49,20.31a.8.8,0,0,0-1.11-.2L16.93,29.52a.8.8,0,0,0-.19,1.12.76.76,0,0,0,.65.34.78.78,0,0,0,.46-.14L31.3,21.43A.8.8,0,0,0,31.49,20.31Z"/><path class="cls-3" d="M10.54,19.15A.79.79,0,0,0,11,19l4.16-2.91A.79.79,0,0,0,15.35,15a.8.8,0,0,0-1.12-.2l-4.15,2.91a.79.79,0,0,0-.19,1.11A.77.77,0,0,0,10.54,19.15Z"/><path class="cls-3" d="M34.36,25.64l-5.55,3.88a.8.8,0,0,0-.19,1.12.76.76,0,0,0,.65.34.78.78,0,0,0,.46-.14L35.28,27a.8.8,0,1,0-.92-1.32Z"/><path class="cls-3" d="M44.84,26.62l-2.77,1.94A.8.8,0,0,0,42.53,30a.79.79,0,0,0,.46-.15l2.77-1.94a.8.8,0,1,0-.92-1.31Z"/><path class="cls-4" d="M39.49,2.4A6.63,6.63,0,0,0,32.87,9v7.9a6.63,6.63,0,0,0,5.76,6.56v30a.86.86,0,0,0,.86.85.85.85,0,0,0,.85-.85v-30a6.62,6.62,0,0,0,5.76-6.56V9A6.63,6.63,0,0,0,39.49,2.4Z"/><path class="cls-5" d="M39.49,18.19a1.83,1.83,0,0,1-1.83-1.83.86.86,0,0,0-.86-.85.85.85,0,0,0-.85.85,3.55,3.55,0,0,0,3.54,3.54.86.86,0,0,0,.85-.86A.85.85,0,0,0,39.49,18.19Z"/></g></svg>