<svg xmlns="http://www.w3.org/2000/svg" xmlns:xlink="http://www.w3.org/1999/xlink" viewBox="0 0 56.69 56.69"><defs><style>.cls-1,.cls-5{fill:none;}.cls-2{fill:#9d9d9c;}.cls-3{fill:#b2b2b2;}.cls-4{fill:#ededed;}.cls-5{stroke:#fff;stroke-linecap:round;stroke-miterlimit:10;stroke-width:2px;opacity:0.4;}.cls-6{fill:#89c058;}.cls-7{clip-path:url(#clip-path);}.cls-8{fill:#a7cb67;}.cls-9{fill:#649c35;}.cls-10{fill:#ec6820;}.cls-11{fill:#ed8f1f;}.cls-12{fill:#dd7016;}</style><clipPath id="clip-path"><rect class="cls-1" x="14" y="15.58" width="40.01" height="40.01"/></clipPath></defs><title>Icons</title><g id="Ebene_1" data-name="Ebene 1"><path class="cls-2" d="M20,7.51H3.81V46c0,3.2,7.25,5.8,16.19,5.8s16.2-2.6,16.2-5.8V7.51Z"/><ellipse class="cls-3" cx="20" cy="7.51" rx="16.19" ry="5.79"/><path class="cls-4" d="M20,25.62c-8.94,0-16.19-2.6-16.19-5.8V33.66c0,3.2,7.25,5.79,16.19,5.79s16.2-2.59,16.2-5.79V19.82C36.2,23,29,25.62,20,25.62Z"/><line class="cls-5" x1="31.58" y1="15.8" x2="31.58" y2="42.88"/><path class="cls-6" d="M38.22,31.33s8.61-5.11,14.09,2.11c0,0,1.41,1.64.32,3.21s-3.46,1.22-4.66-.42c-1.08-1.48-3.67-3.35-9.75-4.9Zm0,0"/><g class="cls-7"><path class="cls-6" d="M38.22,31.33s5.24-8.49-1.5-13.48c0,0-2.22-2-4.23-1.29a2.35,2.35,0,0,0-.2,4.25c1.88,1.08,4.46,3.79,5.93,10.52Zm0,0"/><path class="cls-6" d="M52.12,33.88l.11.14a4.29,4.29,0,0,0,.51-.53A2.63,2.63,0,0,0,53,30.18c-4.32-6.5-14.37.57-14.37.57.49,0,.94.07,1.38.12,2.87-1.05,8.25-2.05,12.08,3Zm0,0"/><path class="cls-8" d="M36.72,17.85c5.2,3.85,3.27,9.78,2.11,12.29a.81.81,0,0,1,0,.16S46,20.36,39.93,16.45a4,4,0,0,0-4.19-.51,3.9,3.9,0,0,0-1,.73,7,7,0,0,1,2,1.18Zm0,0"/></g><path class="cls-9" d="M49.23,19.68c-2.55-1.65-5.78.84-5.78.84A21.23,21.23,0,0,0,42,22.57c-.44,3.25-2.56,6.75-3.61,8.33-.06.22-.12.41-.15.55a23.5,23.5,0,0,1,8.25-3.61A16.75,16.75,0,0,0,48.88,26c3.85-3.66.35-6.27.35-6.27Zm0,0"/><path class="cls-8" d="M38.22,31.33s8.61-5.11,14.09,2.11c0,0,1.41,1.64.32,3.21s-3.46,1.22-4.66-.42c-1.08-1.48-3.67-3.35-9.75-4.9Zm0,0"/><g class="cls-7"><path class="cls-10" d="M38.7,30.55c-.2.39-.33.6-.33.6s.33-.19.89-.45l-.56-.15Zm0,0"/><path class="cls-11" d="M43.19,35.15a4,4,0,0,0,.09-2.4,35.49,35.49,0,0,0-4.91-1.6,25.4,25.4,0,0,0-1.75-5.42,4.27,4.27,0,0,0-2.91-.06c-3.16,1.13-17,21.12-19.65,28.09a.69.69,0,0,0,.93.92c7-2.59,27.06-16.38,28.2-19.53Zm0,0"/></g><path class="cls-12" d="M19.75,48.12a8.62,8.62,0,0,1-1.36-.82.69.69,0,0,0-1,.15.7.7,0,0,0,.15,1,9.46,9.46,0,0,0,1.58,1,.82.82,0,0,0,.3.07.7.7,0,0,0,.63-.4.69.69,0,0,0-.33-.93Zm0,0"/><path class="cls-12" d="M41.34,34.83a10,10,0,0,1-3.94-2.91.7.7,0,0,0-1-.08.71.71,0,0,0-.08,1,11.19,11.19,0,0,0,4.5,3.3.79.79,0,0,0,.25,0,.7.7,0,0,0,.25-1.35Zm0,0"/><path class="cls-12" d="M29.86,29.33a.71.71,0,0,1,.53.6,4.9,4.9,0,0,0,1.75,3.34.7.7,0,0,1,.16,1,.69.69,0,0,1-.57.29.66.66,0,0,1-.4-.13A6.21,6.21,0,0,1,29,30.33"/><path class="cls-12" d="M31.33,34.41a.66.66,0,0,0,.4.13.69.69,0,0,0,.57-.29.7.7,0,0,0-.16-1,4.9,4.9,0,0,1-1.75-3.34.71.71,0,0,0-.53-.6l-.82,1a6.21,6.21,0,0,0,2.29,4.08Zm0,0"/><path class="cls-12" d="M35.19,42.34a6.25,6.25,0,0,1-4-2.29.7.7,0,1,1,1.14-.8A5,5,0,0,0,35.65,41a.7.7,0,0,1,.61.55"/><path class="cls-12" d="M35.65,41a5,5,0,0,1-3.34-1.75.7.7,0,1,0-1.14.8,6.25,6.25,0,0,0,4,2.29l1.07-.79a.7.7,0,0,0-.61-.55Zm0,0"/><path class="cls-12" d="M24.3,36.64a.69.69,0,0,1,.54.59,3.09,3.09,0,0,0,1.08,2.09.71.71,0,0,1,.17,1,.71.71,0,0,1-1,.16,4.38,4.38,0,0,1-1.6-2.7"/><path class="cls-12" d="M25.11,40.46a.71.71,0,0,0,.41.13.7.7,0,0,0,.4-1.27,3.09,3.09,0,0,1-1.08-2.09.68.68,0,0,0-.54-.59l-.79,1.12a4.38,4.38,0,0,0,1.6,2.7Zm0,0"/><path class="cls-12" d="M26.58,48.25a4.48,4.48,0,0,1-3-1.65.7.7,0,0,1,1.14-.81,3.14,3.14,0,0,0,2.09,1.09.69.69,0,0,1,.62.76.11.11,0,0,1,0,.06"/><path class="cls-12" d="M26.82,46.88a3.12,3.12,0,0,1-2.09-1.09.7.7,0,0,0-1.14.81,4.48,4.48,0,0,0,3,1.65l.84-.54a.14.14,0,0,0,0-.06.69.69,0,0,0-.62-.77Zm0,0"/></g></svg>