<svg xmlns="http://www.w3.org/2000/svg" viewBox="0 0 56.69 56.69"><defs><style>.cls-1{fill:#a48a7b;}.cls-2{fill:#91796d;}.cls-3{fill:#7b6a58;}.cls-4{fill:#916d4a;}.cls-5{fill:#cbbba0;}</style></defs><title>ic_hefe</title><g id="Ebene_1" data-name="Ebene 1"><path class="cls-1" d="M17.37,4S30.2,15.17,52.15,16.19l-8.45,24s-16.88-3-22.62-6.75L24.8,20.57s-3.72,9.8-7.43,11.15c0,0-8.11-3.38-9.8-5.4C7.57,26.32,16,12.47,17.37,4Z"/><path class="cls-2" d="M17.37,4C16,12.47,7.57,26.32,7.57,26.32A9.45,9.45,0,0,0,9.75,28,113.54,113.54,0,0,0,15.61,17a54.23,54.23,0,0,0,4-11.3A27.79,27.79,0,0,1,17.37,4Z"/><path class="cls-2" d="M52.15,16.19c-1.13-.06-2.23-.14-3.31-.24-1.72,4.9-5.9,16.75-8.47,23.55,2,.42,3.33.66,3.33.66Z"/><path class="cls-3" d="M18.83,6.76l-.08,0L17.5,5.93a.16.16,0,0,1,0-.22.15.15,0,0,1,.21,0l1.24.81a.16.16,0,0,1,.05.21A.15.15,0,0,1,18.83,6.76Z"/><path class="cls-3" d="M11.07,24.64a.11.11,0,0,1-.08,0l-1.25-.81a.15.15,0,0,1,0-.21.16.16,0,0,1,.21-.05l1.24.81a.16.16,0,0,1,0,.21A.15.15,0,0,1,11.07,24.64Z"/><path class="cls-3" d="M18.08,9.18l-.08,0-1.28-.75a.15.15,0,0,1-.06-.21.16.16,0,0,1,.21,0l1.29.74a.16.16,0,0,1,.05.21A.16.16,0,0,1,18.08,9.18Z"/><path class="cls-3" d="M12.23,22.56a.13.13,0,0,1-.08,0l-1.28-.74a.15.15,0,1,1,.15-.26l1.29.74a.15.15,0,0,1,0,.21A.16.16,0,0,1,12.23,22.56Z"/><path class="cls-3" d="M17.33,11.4l-.08,0L16,10.64a.16.16,0,0,1,.16-.27l1.28.74a.15.15,0,0,1,.06.21A.16.16,0,0,1,17.33,11.4Z"/><path class="cls-3" d="M13.37,20.4l-.08,0L12,19.64a.15.15,0,0,1-.06-.21.15.15,0,0,1,.21-.06l1.29.74a.16.16,0,0,1,.05.21A.16.16,0,0,1,13.37,20.4Z"/><path class="cls-3" d="M16.56,13.62a.1.1,0,0,1-.07,0l-1.29-.74a.16.16,0,0,1-.06-.21.15.15,0,0,1,.21-.05l1.29.74a.16.16,0,0,1,.06.21A.15.15,0,0,1,16.56,13.62Z"/><path class="cls-3" d="M15.54,15.68l-.08,0-1.29-.75a.14.14,0,0,1-.05-.2.15.15,0,0,1,.21-.06l1.28.74a.15.15,0,0,1,.06.21A.16.16,0,0,1,15.54,15.68Z"/><path class="cls-3" d="M14.57,17.91a.12.12,0,0,1-.08,0l-1.28-.74a.15.15,0,0,1-.06-.21.16.16,0,0,1,.21-.06l1.29.75a.15.15,0,0,1-.08.28Z"/><path class="cls-3" d="M49.77,20.45h0l-1.45-.32a.16.16,0,0,1-.12-.18.15.15,0,0,1,.18-.12l1.46.32a.15.15,0,0,1,.11.18A.15.15,0,0,1,49.77,20.45Z"/><path class="cls-3" d="M48.67,23.2h0l-1.45-.32a.15.15,0,0,1-.12-.18.16.16,0,0,1,.18-.12l1.45.32a.16.16,0,0,1,.12.19A.16.16,0,0,1,48.67,23.2Z"/><path class="cls-3" d="M47.72,26.16h0l-1.45-.32a.16.16,0,0,1-.12-.18.16.16,0,0,1,.19-.12l1.45.32a.15.15,0,0,1,.11.18A.14.14,0,0,1,47.72,26.16Z"/><path class="cls-3" d="M46.58,29.47h0l-1.45-.32A.15.15,0,0,1,45,29a.14.14,0,0,1,.18-.12l1.45.32a.16.16,0,0,1,.12.18A.16.16,0,0,1,46.58,29.47Z"/><path class="cls-3" d="M45.36,32.64h0l-1.45-.32a.16.16,0,0,1-.12-.19A.15.15,0,0,1,44,32l1.45.32a.15.15,0,0,1,.11.18A.15.15,0,0,1,45.36,32.64Z"/><path class="cls-3" d="M44.18,35.47h0l-1.45-.32a.15.15,0,0,1,.06-.3l1.46.32a.15.15,0,0,1,.11.18A.14.14,0,0,1,44.18,35.47Z"/><path class="cls-3" d="M43.24,38.61h0l-1.46-.32a.15.15,0,0,1,.07-.3l1.45.32a.16.16,0,0,1,.12.18A.16.16,0,0,1,43.24,38.61Z"/><path class="cls-4" d="M34.27,19.18c-1.25-.39-2.72.72-3.28,2.49a4.16,4.16,0,0,0-.1,2.25,4.26,4.26,0,0,0-1.2,1.91c-.56,1.77,0,3.52,1.27,3.92a2.13,2.13,0,0,0,1.32-.29l7.33,2.3,2.91-9.29-7.32-2.3C35,19.8,34.68,19.31,34.27,19.18Z"/><path class="cls-3" d="M9.86,26.7l-.09,0-1.24-.81a.17.17,0,0,1,0-.22.15.15,0,0,1,.21,0l1.25.81a.15.15,0,0,1,0,.21A.12.12,0,0,1,9.86,26.7Z"/><path class="cls-3" d="M50.68,18h0l-1.44-.34a.16.16,0,0,1-.11-.19.14.14,0,0,1,.18-.11l1.45.34a.15.15,0,0,1,.11.19A.15.15,0,0,1,50.68,18Z"/><path class="cls-5" d="M18.28,40.37a1,1,0,0,1-.76-.36L16,38.12a1,1,0,1,1,1.52-1.22L19,38.79a1,1,0,0,1-.15,1.37A1,1,0,0,1,18.28,40.37Z"/><path class="cls-5" d="M11.26,48.62a1,1,0,0,1-.76-.36L9,46.37A1,1,0,0,1,9.14,45a1,1,0,0,1,1.37.14L12,47a1,1,0,0,1-.76,1.58Z"/><path class="cls-5" d="M17.26,47a1,1,0,0,1-.33-.78L17,43.84a1,1,0,1,1,1.94.07l-.08,2.42a1,1,0,0,1-1,.93A1,1,0,0,1,17.26,47Z"/><path class="cls-5" d="M12.33,44a1,1,0,0,1,.16-.83l1.43-1.95a1,1,0,0,1,1.57,1.16l-1.43,1.94a1,1,0,0,1-1.36.21A.94.94,0,0,1,12.33,44Z"/><path class="cls-5" d="M11.59,37.51a1,1,0,0,1-.19-.82l.54-2.35a1,1,0,1,1,1.9.43l-.54,2.35a1,1,0,0,1-1.17.74A1,1,0,0,1,11.59,37.51Z"/><path class="cls-5" d="M21,40.2a1,1,0,0,1-.18-.82L21.31,37a1,1,0,0,1,1.9.43l-.53,2.36a1,1,0,0,1-1.17.73A1,1,0,0,1,21,40.2Z"/></g></svg>