<svg xmlns="http://www.w3.org/2000/svg" xmlns:xlink="http://www.w3.org/1999/xlink" viewBox="0 0 56.69 56.69"><defs><style>.cls-1{fill:none;}.cls-2{fill:#ffd454;}.cls-3{fill:#f8b941;}.cls-4{fill:#fccc4d;}.cls-5{clip-path:url(#clip-path);}</style><clipPath id="clip-path"><rect class="cls-1" x="1.81" y="14.68" width="35.52" height="35.2"/></clipPath></defs><title>Icons</title><g id="Ebene_1" data-name="Ebene 1"><path class="cls-2" d="M40.5,8s4.9-3.33,10.12,3.24c0,0,1.35,1.25,2,11.05,0,0,3.34,12.1,1.93,16.95,0,0-.89,5.37-4.8,8-5.63,3.86-12.2,0-12.2,0s-7.3-3.44-8.4-13.82a28.92,28.92,0,0,1,3.24-17.31S35.49,10.6,40.5,8Z"/><path class="cls-3" d="M45.27,34.55a1.82,1.82,0,0,1-1.7-1.25.38.38,0,0,1,.22-.45.37.37,0,0,1,.45.23,1,1,0,0,0,1.91,0,.35.35,0,1,1,.67.22,1.58,1.58,0,0,1-1.55,1.25Z"/><path class="cls-3" d="M41.4,43.57a1.81,1.81,0,0,1-1.69-1.25.35.35,0,0,1,.66-.22,1,1,0,0,0,1.92,0,.35.35,0,0,1,.66.22,1.57,1.57,0,0,1-1.55,1.25Z"/><path class="cls-3" d="M34.68,33A1.81,1.81,0,0,1,33,31.79a.35.35,0,0,1,.67-.22,1,1,0,0,0,1.91,0,.33.33,0,0,1,.45-.22.33.33,0,0,1,.22.44A1.52,1.52,0,0,1,34.68,33Z"/><path class="cls-3" d="M43.62,25.49a1.82,1.82,0,0,1-1.69-1.26.35.35,0,0,1,.22-.44.35.35,0,0,1,.44.22,1,1,0,0,0,1.92,0,.33.33,0,0,1,.44-.22.32.32,0,0,1,.22.44,1.47,1.47,0,0,1-1.55,1.26Z"/><path class="cls-3" d="M35.47,21.74a1.83,1.83,0,0,1-1.7-1.26A.36.36,0,0,1,34,20a.37.37,0,0,1,.44.22,1,1,0,0,0,1.92,0A.33.33,0,0,1,36.8,20a.33.33,0,0,1,.22.44,1.47,1.47,0,0,1-1.55,1.26Z"/><path class="cls-3" d="M43.62,15.32a1.81,1.81,0,0,1-1.69-1.25.35.35,0,0,1,.66-.22,1,1,0,0,0,1.92,0,.35.35,0,1,1,.66.22,1.57,1.57,0,0,1-1.55,1.25Z"/><path class="cls-4" d="M40.77,48.53a10.75,10.75,0,0,0,9-1.27c3.91-2.66,4.8-8,4.8-8,1.41-4.85-1.93-16.95-1.93-16.95-.63-9.8-2-11-2-11a11.12,11.12,0,0,0-4.33-3.52c.1.17,2.83,4.82,3,8S49,23.89,50.9,29.73,52.38,44.65,40.77,48.53Z"/><g class="cls-5"><path class="cls-2" d="M6.9,49.12S1.08,48,2,39.68c0,0-.07-1.84,6.42-9.21,0,0,6.2-10.92,10.62-13.35,0,0,4.43-3.17,9.07-2.29,6.71,1.25,8.63,8.63,8.63,8.63s2.73,7.6-3.83,15.71a28.87,28.87,0,0,1-14.53,9.95s-6.12,1.7-11.51,0Z"/></g><path class="cls-3" d="M18.92,23.16a1.81,1.81,0,0,1-1.69-1.25.35.35,0,1,1,.66-.22,1,1,0,0,0,1.92,0,.35.35,0,1,1,.66.22,1.57,1.57,0,0,1-1.55,1.25Z"/><path class="cls-3" d="M31.39,22.87a1.82,1.82,0,0,1-1.7-1.25.35.35,0,1,1,.66-.23,1,1,0,0,0,1.92,0,.33.33,0,0,1,.44-.22.34.34,0,0,1,.23.45,1.59,1.59,0,0,1-1.55,1.25Z"/><path class="cls-3" d="M29,33a1.81,1.81,0,0,1-1.7-1.25.35.35,0,0,1,.22-.44.35.35,0,0,1,.44.22,1,1,0,0,0,1.92,0,.35.35,0,0,1,.67.22A1.53,1.53,0,0,1,29,33Z"/><path class="cls-3" d="M23.72,29.73A1.82,1.82,0,0,1,22,28.47a.36.36,0,0,1,.22-.44.36.36,0,0,1,.44.22,1,1,0,0,0,1.92,0,.35.35,0,0,1,.67.22,1.48,1.48,0,0,1-1.55,1.26Z"/><path class="cls-3" d="M23.72,41.16A1.82,1.82,0,0,1,22,39.91a.35.35,0,1,1,.66-.23,1,1,0,0,0,1.92,0,.33.33,0,0,1,.44-.22.34.34,0,0,1,.23.45,1.48,1.48,0,0,1-1.55,1.25Z"/><path class="cls-3" d="M13.76,35.63a1.83,1.83,0,0,1-1.7-1.26.36.36,0,0,1,.23-.44.37.37,0,0,1,.44.22,1,1,0,0,0,1.92,0,.33.33,0,0,1,.44-.22.33.33,0,0,1,.22.44,1.58,1.58,0,0,1-1.55,1.26Z"/><g class="cls-5"><path class="cls-3" d="M7.93,44.33a1.82,1.82,0,0,1-1.69-1.25.35.35,0,1,1,.66-.22,1,1,0,0,0,1.92,0,.33.33,0,0,1,.44-.23.33.33,0,0,1,.22.45,1.58,1.58,0,0,1-1.55,1.25Z"/><path class="cls-4" d="M36.7,23.39l-.23-.67a18,18,0,0,1-4.35,12.69,28.86,28.86,0,0,1-14.52,10s-6.13,1.7-11.51,0A6.27,6.27,0,0,1,1.81,41.6c.15,6.49,5,7.45,5,7.45,5.38,1.7,11.5,0,11.5,0a28.85,28.85,0,0,0,14.53-10c6.56-8.11,3.84-15.7,3.84-15.7Z"/></g></g></svg>