<svg xmlns="http://www.w3.org/2000/svg" viewBox="0 0 56.69 56.69"><defs><style>.cls-1{fill:#fff;}.cls-2{fill:#ededed;}.cls-3{fill:#706f6f;}</style></defs><title>Icons</title><g id="Ebene_1" data-name="Ebene 1"><path class="cls-1" d="M18.74,20.36c-9.3,0-16.85-2.06-16.85-4.6h0V46.33c0,2.55,7.55,4.61,16.85,4.61S35.6,48.88,35.6,46.33V15.76C35.6,18.3,28.05,20.36,18.74,20.36Z"/><ellipse class="cls-2" cx="18.74" cy="15.76" rx="16.85" ry="4.61"/><ellipse class="cls-3" cx="18.74" cy="15.76" rx="5.38" ry="1.47"/><path class="cls-2" d="M35.57,46.46a11.34,11.34,0,0,1,10.36,0c2.32,1.13,6.7,1.84,9.29-.63V14.66c-2.59,2.48-7,1.77-9.29.63a11.4,11.4,0,0,0-10.36,0Z"/></g></svg>