<svg xmlns="http://www.w3.org/2000/svg" viewBox="0 0 56.69 56.69"><defs><style>.cls-1{fill:#cbbba0;}.cls-2{fill:#d3c7b6;}.cls-3{fill:#ededed;}.cls-4{fill:#f4c44d;}.cls-5{fill:#eeaf4b;}</style></defs><title>Icons</title><g id="Ebene_1" data-name="Ebene 1"><path class="cls-1" d="M12.13,7.29s-.26-.94,5.73-.58,12.88-6,17.23-4.08,6.33,3.52,6.19,4.26-11.45,8.53-11.45,8.53L16.77,14Z"/><path class="cls-2" d="M12.06,7.21s1.81,5-.14,8.71c-.61,1.19-2.27.6-2.2,4.85s-1.18,24.55.41,26.86-.38,2.62-.63,4.09,13.59,4.82,31.37,1.61A4.08,4.08,0,0,0,41.69,51c.18-1.67-2-.56-.89-1.77s1.59-1.62,1.77-3.51.67-26.74-.43-27.82S37.75,10,40.21,8.4a1.87,1.87,0,0,0,1.07-1.51s-3.68-.77-9.22,1.83C22.89,13,12.06,7.21,12.06,7.21Z"/><path class="cls-3" d="M26,23.36c-8.12,0-12.58-.4-14.71-2.84V39.73c2.13,2.42,6.59,2.84,14.71,2.84S37.47,42,40.74,39.73V20.52C36.31,22.93,34.15,23.36,26,23.36Z"/><path class="cls-4" d="M31.93,30.24a2.54,2.54,0,0,0,2.65-1.38l.82-1.28-1.52,0a2.53,2.53,0,0,0-2.64,1.39l-.36.56h0L12.71,39a.4.4,0,0,0-.17.55.4.4,0,0,0,.24.2.42.42,0,0,0,.31,0l18.12-9.51Zm0,0"/><path class="cls-5" d="M29.2,30.1l1.11-1a2.53,2.53,0,0,0,.89-2.85l-.32-1.48-1.11,1a2.55,2.55,0,0,0-.89,2.86Zm0,0"/><path class="cls-5" d="M31.27,30.9l-1.48.32,1,1.11a2.51,2.51,0,0,0,1.28.91,2.55,2.55,0,0,0,1.57,0l1.48-.32-1-1.11a2.61,2.61,0,0,0-2.86-.89Zm0,0"/><path class="cls-5" d="M26,31.8l1.11-1A2.53,2.53,0,0,0,28,27.91l-.32-1.48-1.11,1a2.53,2.53,0,0,0-.89,2.85Zm0,0"/><path class="cls-5" d="M28,32.6l-1.48.32,1,1.11a2.61,2.61,0,0,0,1.28.91,2.55,2.55,0,0,0,1.57,0l1.48-.32-1-1.11A2.57,2.57,0,0,0,28,32.6Zm0,0"/><path class="cls-5" d="M22.73,33.49l1.1-1a2.53,2.53,0,0,0,.89-2.86l-.32-1.48-1.1,1A2.51,2.51,0,0,0,22.41,32Zm0,0"/><path class="cls-5" d="M24.8,34.3l-1.48.32,1,1.11a2.59,2.59,0,0,0,2.86.89l1.48-.33-1-1.1a2.57,2.57,0,0,0-2.85-.89Zm0,0"/><path class="cls-5" d="M19.49,35.19l1.11-1a2.53,2.53,0,0,0,.89-2.85l-.33-1.48-1.1,1a2.53,2.53,0,0,0-.89,2.85Zm0,0"/><path class="cls-5" d="M21.56,36l-1.48.32,1,1.1a2.45,2.45,0,0,0,1.28.91,2.48,2.48,0,0,0,1.57,0L25.45,38l-1-1.1A2.56,2.56,0,0,0,21.56,36Zm0,0"/><path class="cls-5" d="M16.25,36.89l1.11-1A2.53,2.53,0,0,0,18.25,33l-.32-1.48-1.11,1a2.53,2.53,0,0,0-.89,2.85Zm0,0"/><path class="cls-4" d="M32,26.12a.42.42,0,0,0,.31,0l2.88-1.51a.39.39,0,0,0,.17-.54.41.41,0,0,0-.55-.18L31.9,25.37a.41.41,0,0,0,.06.75Zm0,0"/><path class="cls-4" d="M33.2,27a.4.4,0,0,0,.24.2.38.38,0,0,0,.31,0l3.59-1.88a.42.42,0,0,0,.18-.55.4.4,0,0,0-.55-.17l-3.6,1.88a.41.41,0,0,0-.17.55Zm0,0"/><path class="cls-4" d="M38.48,27.43l-3.6,1.88a.4.4,0,0,0-.17.55.4.4,0,0,0,.24.2.42.42,0,0,0,.31,0l3.59-1.89a.4.4,0,0,0-.37-.71Zm0,0"/><path class="cls-4" d="M35.75,27.48a.4.4,0,0,0,.24.2.42.42,0,0,0,.31,0L39.54,26a.41.41,0,0,0-.38-.72l-3.24,1.7a.42.42,0,0,0-.17.55Zm0,0"/><path class="cls-4" d="M37.79,29.62l-2.87,1.51a.41.41,0,0,0-.18.55.45.45,0,0,0,.24.19.37.37,0,0,0,.31,0l2.88-1.51a.41.41,0,0,0-.38-.72Zm0,0"/><path class="cls-5" d="M18.33,37.69,16.84,38l1,1.1a2.49,2.49,0,0,0,1.28.91,2.55,2.55,0,0,0,1.57,0l1.48-.32-1-1.11a2.6,2.6,0,0,0-2.85-.89Zm0,0"/></g></svg>