<svg xmlns="http://www.w3.org/2000/svg" viewBox="0 0 56.69 56.69"><defs><style>.cls-1{fill:#c6c6c6;}.cls-2{fill:#e6e6e6;}.cls-3{fill:#e2e2e2;}.cls-4{fill:#d1d1d1;}.cls-5{fill:#eaeaea;}.cls-6{fill:#4da7de;}.cls-7{fill:#2a9cd6;}.cls-8{fill:#fff;}.cls-9{fill:#ededed;}</style></defs><title>Icons</title><g id="Ebene_1" data-name="Ebene 1"><path class="cls-1" d="M23.75,55.52l-13-5.58V19.27l13,4.64Zm0,0"/><path class="cls-2" d="M41.41,50.87,23.75,55.52V23.91l17.66-4.64Zm0,0"/><path class="cls-3" d="M34.9,6.25,17.25,10V6.25L34.9,2.54Zm0,0"/><path class="cls-4" d="M23.75,23.91l-13-4.64L17.25,10Zm0,0"/><path class="cls-5" d="M41.41,19.27,23.75,23.91,17.25,10,34.9,6.25Zm0,0"/><path class="cls-6" d="M41.41,36.93,23.75,50.87V36.93L41.41,22.06Zm0,0"/><path class="cls-7" d="M10.74,45.29l13,5.58V36.93l-13-5.58Zm0,0"/><path class="cls-8" d="M31.39,18.22c-2.06.54-2.75-1.32-3.08-2.56s-.63-3.19,1.43-3.73,2.75,1.32,3.07,2.56.64,3.19-1.42,3.73Zm0,0"/><path class="cls-9" d="M31.19,7,33,6.64V2.93l-1.85.39Zm0,0"/><path class="cls-9" d="M27.47,7.82l1.86-.39V3.71l-1.86.39Zm0,0"/><path class="cls-9" d="M23.75,8.61l1.86-.4V4.49l-1.86.39Zm0,0"/><path class="cls-9" d="M20,9.39,21.89,9V5.28L20,5.67Zm0,0"/></g></svg>