<svg xmlns="http://www.w3.org/2000/svg" viewBox="0 0 56.69 56.69"><defs><style>.cls-1{fill:#f3d286;}.cls-2{fill:#eeaf4b;}</style></defs><title>Icons</title><g id="Ebene_1" data-name="Ebene 1"><path class="cls-1" d="M48.7,15.37a5.43,5.43,0,0,0-3.12.27L7.66,30.26,4.92,45.75,45,30.32h0a9.75,9.75,0,0,0,5.37-6.48C51.61,19.62,51,16.05,48.7,15.37Z"/><path class="cls-2" d="M47.54,18,15,30.57c-.19.07-.43-.08-.53-.35s0-.54.16-.61L47.17,17.05c.19-.07.42.08.53.35A.46.46,0,0,1,47.54,18Z"/><path class="cls-2" d="M47.24,21.37,14.65,33.93c-.19.07-.43-.08-.53-.35s0-.54.16-.61L46.87,20.41c.19-.08.42.08.53.34A.47.47,0,0,1,47.24,21.37Z"/><path class="cls-2" d="M46.67,24.92,14.08,37.48c-.19.08-.42-.08-.53-.34a.47.47,0,0,1,.16-.62L46.3,24c.19-.07.43.08.53.35S46.86,24.85,46.67,24.92Z"/><path class="cls-2" d="M45.25,28.67,12.66,41.23c-.19.08-.43-.08-.53-.34s0-.54.16-.61L44.88,27.71c.19-.07.43.09.53.35S45.44,28.6,45.25,28.67Z"/><path class="cls-2" d="M4.63,45.25a2.25,2.25,0,0,1-.58-.08c-2-.61-2.69-4.41-1.51-8.29,1.07-3.5,3.35-6.13,5.31-6.13a1.84,1.84,0,0,1,.57.09c.93.28,1.62,1.26,1.93,2.76a11.52,11.52,0,0,1-.42,5.53C8.87,42.62,6.59,45.25,4.63,45.25Z"/><path class="cls-1" d="M7.85,31.25h0a1.54,1.54,0,0,1,.43.06c.73.23,1.31,1.1,1.58,2.39A11,11,0,0,1,9.45,39c-1.1,3.61-3.32,5.77-4.82,5.77a1.49,1.49,0,0,1-.43-.06C2.68,44.23,1.82,41,3,37c1.1-3.61,3.32-5.77,4.83-5.77m0-1c-2.16,0-4.63,2.69-5.78,6.48C.78,41,1.6,44.94,3.91,45.65a2.46,2.46,0,0,0,.72.1c2.16,0,4.62-2.68,5.78-6.48,1.29-4.22.46-8.21-1.84-8.91a2.57,2.57,0,0,0-.72-.11Z"/><path class="cls-1" d="M51.68,48.49a4.9,4.9,0,0,1-2.76-.89L17.6,26.32l.61-14.91L51.27,33.88h0A9.31,9.31,0,0,1,54.83,41C55.15,45.15,53.91,48.33,51.68,48.49Z"/><path class="cls-2" d="M51.16,45.81,24.24,27.52c-.15-.11-.4,0-.54.21s-.14.5,0,.6L50.63,46.62c.16.11.4,0,.55-.21A.46.46,0,0,0,51.16,45.81Z"/><path class="cls-2" d="M51.55,42.64,24.64,24.35c-.16-.11-.4,0-.55.21s-.13.5,0,.6L51,43.45c.16.11.4,0,.55-.21A.45.45,0,0,0,51.55,42.64Z"/><path class="cls-2" d="M51.75,39.23,24.84,20.94c-.16-.11-.41,0-.55.21s-.13.5,0,.6L51.23,40c.15.11.4,0,.54-.21A.44.44,0,0,0,51.75,39.23Z"/><path class="cls-2" d="M51.21,35.46,24.3,17.17c-.16-.1-.4,0-.55.22a.45.45,0,0,0,0,.6L50.69,36.28c.16.1.4,0,.55-.22A.45.45,0,0,0,51.21,35.46Z"/><path class="cls-2" d="M18.27,25.92c-1.88,0-3.64-3-3.93-6.77s1.07-7.2,3-7.35h.13c1.88,0,3.64,3,3.93,6.78s-1.07,7.19-3,7.34Z"/><path class="cls-1" d="M17.45,12.29c1.39,0,3.14,2.6,3.43,6.32s-1.09,6.69-2.52,6.81h-.09c-1.39,0-3.14-2.59-3.43-6.31-.3-3.87,1.09-6.7,2.52-6.81h.09m0-1h-.17c-2.22.18-3.76,3.71-3.44,7.88s2.28,7.24,4.43,7.24h.17c2.22-.18,3.76-3.71,3.44-7.88s-2.28-7.24-4.43-7.24Z"/></g></svg>