<svg xmlns="http://www.w3.org/2000/svg" viewBox="0 0 56.69 56.69"><defs><style>.cls-1{fill:#b17f4a;}.cls-2{fill:#b8d1bd;}.cls-3{fill:#afa528;}.cls-4{opacity:0.5;}.cls-5{fill:#fff;}</style></defs><title>Icons</title><g id="Ebene_1" data-name="Ebene 1"><path class="cls-1" d="M27.62,14.66H25a.52.52,0,0,1-.52-.53L23.14,1.76a.53.53,0,0,1,.53-.53H29a.53.53,0,0,1,.53.53L28.15,14.13A.53.53,0,0,1,27.62,14.66Z"/><path class="cls-2" d="M41.94,24.14c0-6.18-3.76-11.21-8.37-11.21a7,7,0,0,0-4.68,1.92c0-.61,0-1.24,0-1.9,0-2.57.22-1.63.66-3.38,0,0,.07-.19,0-.24l-8.35-3.1c-.09,0,0,.11,0,.15C21.18,9,23.67,8.27,23.7,13c.1,13.1-2.23,15.43-5.33,19.53A20.19,20.19,0,0,0,14,44.53a19.23,19.23,0,0,0,1.79,8.23,2.54,2.54,0,0,0,2,1.42.9.9,0,0,0,.9.86H33.68a.91.91,0,0,0,.9-.85,2.53,2.53,0,0,0,2.17-1.43,19.23,19.23,0,0,0,1.79-8.23A18.75,18.75,0,0,0,36,34.86C39.45,33.45,41.94,29.18,41.94,24.14Zm-7.75,8.32c-3-3.12-4.79-4.68-5.21-14.29a5.56,5.56,0,0,1,4.59-3c3.39,0,6.15,4,6.15,9C39.72,28.55,34.36,32.63,34.19,32.46Z"/><path class="cls-3" d="M34.19,32.46a15.62,15.62,0,0,1-3.51-4.55H21.44a28.1,28.1,0,0,1-3.07,4.57A20.19,20.19,0,0,0,14,44.53a19.23,19.23,0,0,0,1.79,8.23,2.54,2.54,0,0,0,2,1.42.9.9,0,0,0,.9.86H33.68a.91.91,0,0,0,.9-.85,2.53,2.53,0,0,0,2.17-1.43,19.23,19.23,0,0,0,1.79-8.23A18.75,18.75,0,0,0,36,34.86C34.64,33.06,34.36,32.63,34.19,32.46Z"/><g class="cls-4"><path class="cls-5" d="M34.93,44.72h0a.66.66,0,0,1-.66-.67c.13-8.61-4.84-10.55-5.06-10.62a.67.67,0,0,1,.46-1.26c.24.09,6.07,2.28,5.93,11.9A.66.66,0,0,1,34.93,44.72Z"/></g></g></svg>