<svg xmlns="http://www.w3.org/2000/svg" viewBox="0 0 56.69 56.69"><defs><style>.cls-1{fill:#caab69;}.cls-2{fill:#ededed;}.cls-3{fill:#b8d1bd;}.cls-4{fill:#8db293;}.cls-5{fill:#cbbba0;}</style></defs><title>Icons</title><g id="Ebene_1" data-name="Ebene 1"><rect class="cls-1" x="20.88" y="21.05" width="40.05" height="2.6" transform="translate(3.75 50.5) rotate(-65.8)"/><path class="cls-2" d="M47.7,29.29a2.6,2.6,0,0,0-1.55-4.69,2.63,2.63,0,0,0-2,.9,1.6,1.6,0,0,0,0-.23,2.62,2.62,0,0,0-3.62-2.4,2.6,2.6,0,0,0-4.9-1.15,2.73,2.73,0,0,0-1.06-.23,2.6,2.6,0,0,0-2.08,1.05,2.48,2.48,0,0,0,.06-.54,2.61,2.61,0,0,0-5-1,2.59,2.59,0,0,0-4.24,2h0a2.58,2.58,0,0,0-2.27-1.35h0a2.59,2.59,0,0,0-2.56-2.19,2.56,2.56,0,0,0-.79.13A2.61,2.61,0,0,0,13,21.07a2.63,2.63,0,0,0,.64,1.7l-.13,0a2.61,2.61,0,0,0-2.61,2.61,2.55,2.55,0,0,0,.12.74,2.59,2.59,0,0,0-4.32,1.95,3.27,3.27,0,0,0,0,.44,2.6,2.6,0,1,0,4.14,2.29l33.11.27a2.33,2.33,0,0,0-.06.53,2.61,2.61,0,1,0,3.82-2.29Z"/><path class="cls-3" d="M3.85,30.14c0,.09,0,.18,0,.27a23.68,23.68,0,0,0,47.36,0c0-.09,0-.18,0-.27Z"/><rect class="cls-4" x="16.84" y="51.61" width="21.35" height="2.98"/><path class="cls-1" d="M53.26,7.8,42.38,28A4.13,4.13,0,0,1,41,27.62a3.23,3.23,0,0,1-.93-.82L51,6.57Z"/><path class="cls-5" d="M15.71,26.47a1,1,0,0,1-.94-.71,1,1,0,0,1,.67-1.2l2.33-.66a1,1,0,0,1,.53,1.87L16,26.43A.84.84,0,0,1,15.71,26.47Z"/><path class="cls-5" d="M26.31,29.57a1,1,0,0,1-.76-.36L24,27.32a1,1,0,0,1,1.52-1.22L27.07,28a1,1,0,0,1-.76,1.58Z"/><path class="cls-5" d="M36,29.48a1,1,0,0,1-.69-.28,1,1,0,0,1,0-1.38L37,26.11a1,1,0,1,1,1.38,1.38L36.65,29.2A1,1,0,0,1,36,29.48Z"/><path class="cls-5" d="M30.76,24.21h-.2l-2.37-.48a1,1,0,1,1,.39-1.91l2.37.48a1,1,0,0,1-.19,1.92Z"/></g></svg>