<svg xmlns="http://www.w3.org/2000/svg" viewBox="0 0 56.69 56.69"><defs><style>.cls-1{fill:#ededed;}.cls-2{fill:#878787;}.cls-3{fill:#b2b2b2;}.cls-4{fill:#9fd6e2;}</style></defs><title>Icons</title><g id="Ebene_1" data-name="Ebene 1"><path class="cls-1" d="M39.26,50.72V24.55A12.17,12.17,0,0,0,27.14,12.42h-.36A12.17,12.17,0,0,0,14.66,24.55V50.72a3.66,3.66,0,0,0,3.65,3.66h17.3A3.66,3.66,0,0,0,39.26,50.72Z"/><rect class="cls-2" x="25.77" y="3.87" width="2.27" height="4.96"/><path class="cls-3" d="M32.87,12.73V11.22a4,4,0,0,0-4-4H25a4,4,0,0,0-4,4v1.51a.72.72,0,0,0,.72.72H32.15A.72.72,0,0,0,32.87,12.73Z"/><path class="cls-3" d="M36.15,2.58l-6.93-1a14.85,14.85,0,0,0-1.54-.11H25.43a3,3,0,0,0-3,3V5.59a.54.54,0,0,0,.54.54h7.87a.54.54,0,0,0,.54-.54V4.45a1.81,1.81,0,0,0,0-.23l4.48.68a1.18,1.18,0,0,0,1.33-1A1.16,1.16,0,0,0,36.15,2.58Z"/><path class="cls-4" d="M25.08,32.35c-4-4.41-8.4-3-10.42-2.1V50.72a3.66,3.66,0,0,0,3.65,3.66h17.3a3.66,3.66,0,0,0,3.65-3.66V36.39C32.55,39.44,28.66,36.3,25.08,32.35Z"/><path class="cls-4" d="M38.17,4.81a9.39,9.39,0,0,1,.31,2.34c-.07,1.23-1,2.21-1,3.93a1.78,1.78,0,1,0,3.55,0A7.33,7.33,0,0,0,38.17,4.81Z"/><circle class="cls-4" cx="30.65" cy="30.28" r="2.6"/><circle class="cls-4" cx="23.61" cy="25" r="1.76"/><circle class="cls-4" cx="29.34" cy="22" r="1.4"/></g></svg>