<svg xmlns="http://www.w3.org/2000/svg" xmlns:xlink="http://www.w3.org/1999/xlink" viewBox="0 0 56.69 56.69"><defs><style>.cls-1{fill:none;}.cls-2{clip-path:url(#clip-path);}.cls-3{fill:#c69595;}.cls-4{fill:#fecc54;}.cls-5{fill:#c79033;}.cls-6{fill:#68c1bb;}.cls-7{fill:#8fcecd;}</style><clipPath id="clip-path"><rect class="cls-1" x="15.24" y="2.5" width="24.32" height="52.41"/></clipPath></defs><title>Icons</title><g id="Ebene_1" data-name="Ebene 1"><g class="cls-2"><path class="cls-3" d="M33.71,15.85a6.3,6.3,0,0,0-3-5.38A1,1,0,0,1,30.44,9a3.91,3.91,0,0,0,.92-2.84,4,4,0,1,0-7,2.84,1,1,0,0,1-.25,1.47,6.29,6.29,0,0,0-3,5.37"/></g><path class="cls-4" d="M36.37,22.19H18.43V17.05a2,2,0,0,1,2-2h14a2,2,0,0,1,2,2v5.14Z"/><polygon class="cls-5" points="21.1 15.22 22.99 15.22 22.99 22.19 21.1 22.19 21.1 15.22 21.1 15.22"/><polygon class="cls-5" points="31.81 15.22 33.7 15.22 33.7 22.19 31.81 22.19 31.81 15.22 31.81 15.22"/><polygon class="cls-5" points="26.45 15.22 28.34 15.22 28.34 22.19 26.45 22.19 26.45 15.22 26.45 15.22"/><path class="cls-6" d="M36.77,21.56H18a2.79,2.79,0,0,0-2.79,2.78v.13h0V52h0v.13A2.78,2.78,0,0,0,18,54.91H36.77a2.78,2.78,0,0,0,2.79-2.78V24.34A2.79,2.79,0,0,0,36.77,21.56Z"/><path class="cls-7" d="M35.59,51.25H34a1.08,1.08,0,0,1-1.08-1.08V25.49A1.08,1.08,0,0,1,34,24.41h1.57a1.08,1.08,0,0,1,1.08,1.08V50.17a1.09,1.09,0,0,1-1.08,1.08Z"/></g></svg>