<svg xmlns="http://www.w3.org/2000/svg" viewBox="0 0 56.69 56.69"><defs><style>.cls-1{fill:#9d9d9c;}.cls-2{fill:#b2b2b2;}.cls-3{fill:#ededed;}.cls-4{fill:none;stroke:#fff;stroke-linecap:round;stroke-miterlimit:10;stroke-width:2px;opacity:0.4;}.cls-5{fill:#ed6953;}.cls-6{fill:#399359;}</style></defs><title>Icons</title><g id="Ebene_1" data-name="Ebene 1"><path class="cls-1" d="M22.46,7.58H5.72V47.33c0,3.31,7.5,6,16.74,6s16.74-2.68,16.74-6V7.58Z"/><ellipse class="cls-2" cx="22.46" cy="7.58" rx="16.74" ry="5.99"/><path class="cls-3" d="M22.46,26.29c-9.24,0-16.74-2.68-16.74-6V34.61c0,3.3,7.5,6,16.74,6s16.74-2.69,16.74-6V20.3C39.2,23.61,31.7,26.29,22.46,26.29Z"/><line class="cls-4" x1="34.43" y1="16.15" x2="34.43" y2="44.14"/><path class="cls-5" d="M52.6,35c-1.4-4.84-6.63-7.46-10-7.51-2.31,0-4.52,1.31-6.08,1.58a3,3,0,0,1-.5.05h-.19a3.85,3.85,0,0,1-1-.18c-1.51-.42-3.48-1.49-5.54-1.45-3.39.05-7.67,3.7-8.9,6.8A16,16,0,0,0,23.5,51c5.7,5.73,17.77,5,23.56.79C51.88,48.3,54.88,42.77,52.6,35Z"/><path class="cls-6" d="M36.5,29.28s-2-5.76.34-9l1.85.7s-2,2.12-1.38,8.23Z"/><path class="cls-6" d="M36,28.3s-4.58-2.08-6.89-1.71a10.49,10.49,0,0,0-4.23,1.66,9.23,9.23,0,0,1,4.44-.75,11,11,0,0,1,3.76,1.34s-4.24.46-4.8,3.83c0,0,3.52-2.52,5.47-2.67,0,0,1.74-.83-.29,4a5.31,5.31,0,0,0,2.21-2.43c.26-.71,1.13-2.29,5,1,0,0-.62-2-2-2.63,0,0,3.31.18,4.42.16,0,0-4.55-.87-2.84-1.46s4.06-1.14,4.06-1.14-2.84-1.65-7.54.83A2.43,2.43,0,0,1,36,28.3Z"/></g></svg>