<svg xmlns="http://www.w3.org/2000/svg" viewBox="0 0 56.69 56.69"><defs><style>.cls-1{fill:#f6f6f6;}.cls-2{fill:#eeaf4b;}</style></defs><title>Icons</title><g id="Ebene_1" data-name="Ebene 1"><path class="cls-1" d="M53.66,9.41s-13.52,3.45-25.49,3.47S2.83,9.41,2.83,9.41L2.52,30.84C2.52,43.29,11.17,53,19.37,53H37.12C45.31,53,54,43.29,54,30.84Z"/><ellipse class="cls-2" cx="12.54" cy="41.21" rx="5.81" ry="11.86" transform="translate(-21.63 14.98) rotate(-35.57)"/><path class="cls-2" d="M21.31,27.12l-.47,0C12.26,26.77,3.05,23.47,3,23.44a.45.45,0,0,1-.28-.58.46.46,0,0,1,.58-.27A69.59,69.59,0,0,0,20.4,26.17v-8A78.29,78.29,0,0,1,3,15a.45.45,0,1,1,.28-.86,77,77,0,0,0,17.63,3.19l.43,0Z"/><path class="cls-2" d="M35.22,26.94l-.13-9.83.44,0A77.3,77.3,0,0,0,53.15,13.9a.44.44,0,0,1,.57.29.45.45,0,0,1-.29.57A78.64,78.64,0,0,1,36,18l.1,8a69.73,69.73,0,0,0,17.15-3.58.45.45,0,0,1,.58.27.46.46,0,0,1-.28.58c-.09,0-9.3,3.32-17.88,3.65Z"/><ellipse class="cls-2" cx="43.79" cy="41.21" rx="11.86" ry="5.81" transform="translate(-15.2 52.86) rotate(-54.43)"/><path class="cls-2" d="M32,31.52c-.16,0-.3-.07-.37-.08-.27-.06-.21-.29-.23-.44a1.85,1.85,0,0,0-3.66-.09,1.78,1.78,0,0,0,.19,1.21l-.27.18c-.73.54-1.29.7-2.88-.32a8.63,8.63,0,0,0-.34,2.4,2.16,2.16,0,0,0,2,2h2.5a2.14,2.14,0,0,0,2.31-2.19,2.81,2.81,0,0,0-.32-1.52,1.59,1.59,0,0,0,.13-.13,3.55,3.55,0,0,1,.72-.45c.3-.06.34-.1.22-.13a3,3,0,0,1-.36-.15S32.44,31.59,32,31.52Z"/><ellipse class="cls-2" cx="28.24" cy="9.38" rx="25.48" ry="4.53"/></g></svg>