<svg xmlns="http://www.w3.org/2000/svg" viewBox="0 0 56.69 56.69"><defs><style>.cls-1{fill:#6988c4;}.cls-2{fill:#b2b2b2;}.cls-3{fill:#ededed;}.cls-4{fill:#efbdd7;}.cls-5{fill:none;stroke:#f2dae8;stroke-linecap:round;stroke-miterlimit:10;stroke-width:0.75px;}</style></defs><title>Icons</title><g id="Ebene_1" data-name="Ebene 1"><path class="cls-1" d="M45,29c-1.3-3.1-1.76-5.76-.63-8.08.88-1.8-.25-3.09-1.69-3l-3.76,0A3.08,3.08,0,0,0,36.07,19C32.5,23.18,29.79,30.93,29.79,40a43.67,43.67,0,0,0,1.52,11.69,2.74,2.74,0,0,0,2.5,2.15H47.23a2.73,2.73,0,0,0,2.5-2.15A38.67,38.67,0,0,0,51,41.37C51.24,34.55,46.83,33.44,45,29Z"/><path class="cls-2" d="M43.18,14.77h-1L41.56,13c-.14-.4-.25-.56-.56-.56h-.64c-.31,0-.45.19-.56.56l-.51,1.77h-1a.56.56,0,0,0-.56.56v1.91a.56.56,0,0,0,.56.55h4.91a.56.56,0,0,0,.56-.55V15.33A.56.56,0,0,0,43.18,14.77Z"/><path class="cls-3" d="M20.35,10.46c-7.62,0-13.79,12.36-13.79,27.6a50.39,50.39,0,0,0,1.76,13.5A3.15,3.15,0,0,0,11.2,54H29.49a3.14,3.14,0,0,0,2.88-2.48,50.38,50.38,0,0,0,1.77-13.5C34.14,22.82,28,10.46,20.35,10.46ZM30,30c-1,.36-2.8-2.16-4-5.63s-1.44-6.56-.45-6.91,2.79,2.17,4,5.63S30.94,29.69,30,30Z"/><rect class="cls-2" x="12.95" y="9.01" width="14.79" height="3.51" rx="0.57"/><path class="cls-2" d="M24.26,10.21H16.43a.79.79,0,0,1-.78-.94l1-5.15a.78.78,0,0,1,.77-.65h5.87a.8.8,0,0,1,.78.65l1,5.15A.79.79,0,0,1,24.26,10.21Z"/><path class="cls-4" d="M32.37,51.56a50.38,50.38,0,0,0,1.77-13.5c0-.77,0-1.53,0-2.28-2.58,2.28-6.62,1.56-9.31.21-2.93-1.46-6.15-.73-9.81,1-2.86,1.37-6.77-.46-8.36-1.34,0,.79-.05,1.58-.05,2.38a50.39,50.39,0,0,0,1.76,13.5A3.15,3.15,0,0,0,11.2,54H29.49A3.14,3.14,0,0,0,32.37,51.56Z"/><circle class="cls-4" cx="14.46" cy="26.04" r="2.59"/><path class="cls-5" d="M14.44,24.48A1.6,1.6,0,0,1,16,26.09"/><circle class="cls-4" cx="18.17" cy="31.17" r="1.55"/></g></svg>