<svg xmlns="http://www.w3.org/2000/svg" viewBox="0 0 56.69 56.69"><defs><style>.cls-1{fill:#ffd003;fill-rule:evenodd;}.cls-2{fill:#fff;}</style></defs><title>Icons</title><g id="Ebene_1" data-name="Ebene 1"><path class="cls-1" d="M28.61,2.35A25.72,25.72,0,1,1,2.89,28.07,25.72,25.72,0,0,1,28.61,2.35"/><path class="cls-2" d="M44.51,19.28l-3-3a1,1,0,0,0-1.41,0L25.26,31.08h0l-.15.12,0,0a1,1,0,0,1-1.23-.15h0l-6.66-6.61h0a1,1,0,0,0-1.42,0l-3,3a1,1,0,0,0,0,1.42l11,11a1,1,0,0,0,1.42,0L44.51,20.59A1,1,0,0,0,44.51,19.28Z"/></g></svg>