<svg xmlns="http://www.w3.org/2000/svg" viewBox="0 0 56.69 56.69"><defs><style>.cls-1{fill:#76ccf4;fill-rule:evenodd;}.cls-2{fill:#fff;}</style></defs><title>Icons</title><g id="Ebene_1" data-name="Ebene 1"><path class="cls-1" d="M28.17,2.61a26,26,0,1,1-26,26,26,26,0,0,1,26-26"/><path class="cls-2" d="M41.15,37.13h0L33.33,29.3h0a1,1,0,0,1,0-1.41h0l7.79-7.79h0a1,1,0,0,0,0-1.39h0l-3-3h0a1,1,0,0,0-1.39,0s0,0,0,0h0L28.9,23.41h0l0,0a1,1,0,0,1-1.42,0h0l-7.77-7.77h0a1,1,0,0,0-1.42,0h0l-3.05,3h0a1,1,0,0,0,0,1.42h0L23,27.87h0a1,1,0,0,1,0,1.42h0l-7.79,7.79h0a1,1,0,0,0,0,1.4h0l3,3.07a1,1,0,0,0,1.42,0l7.82-7.83a1.12,1.12,0,0,1,.22-.16,1,1,0,0,1,1.19.15h0l7.81,7.81h0a1,1,0,0,0,1.42,0l3.08-3.1A1,1,0,0,0,41.15,37.13Z"/></g></svg>