<svg id="Ebene_1" data-name="Ebene 1" xmlns="http://www.w3.org/2000/svg" viewBox="0 0 500 500"><defs><style>.cls-1{fill:#fff;}</style></defs><title>market</title><path class="cls-1" d="M254.64,163.82h-.79a36.85,36.85,0,1,0,37.79,36.66,36.84,36.84,0,0,0-11-26A37.43,37.43,0,0,0,254.64,163.82Z"/><path class="cls-1" d="M481.37,233.29l-52.95-45.14L262,45.71c-5.55-5.09-14.6-5.09-20.71,0L18.41,233.29a13,13,0,0,0-1,19.35,17.21,17.21,0,0,0,11.09,4.64,15.36,15.36,0,0,0,10.07-3.74l31.79-26.7V409.33c0,7.81,6.56,13.81,15.16,13.81h113c8.6,0,15.16-6,15.16-13.81V321.76h76.14v87.12c0,7.81,6.56,13.8,15.16,13.8H418.47c8.6,0,15.16-6,15.16-13.8V229.56l27.72,23.53c6,5.09,15.61,5.09,21.15-.45S487.93,238.27,481.37,233.29ZM255.1,272.21a70.82,70.82,0,0,1-34.17-8.49l-.23-.11a1,1,0,0,0-.56-.11,1.35,1.35,0,0,0-1,.34L219,264l-5.77,5.77c-15.05,15.27-37.23,37.68-40.51,41l-.45.45a8.88,8.88,0,0,1-12.33,0S144.11,295.18,144,295.18l-1-1v-.23a8.85,8.85,0,0,1,0-9.95v-.23l1-1L191,235.21a1.7,1.7,0,0,0,.45-1,.87.87,0,0,0-.11-.57l-.12-.23a71.29,71.29,0,1,1,63.93,38.81Z"/></svg>