<svg id="Ebene_1" data-name="Ebene 1" xmlns="http://www.w3.org/2000/svg" viewBox="0 0 500 500"><defs><style>.cls-1{fill:#fff;}</style></defs><title>product</title><path class="cls-1" d="M378.9,356.8a42.71,42.71,0,1,0,42.7,42.7C421.24,375.84,402.07,356.8,378.9,356.8Zm0,72.67a30,30,0,1,1,0-59.93c16.26,0,29.72,13.46,30,30A29.88,29.88,0,0,1,378.9,429.47Z"/><path class="cls-1" d="M183,356.8h-.37c-23.78,1.21-41.73,20.62-40.88,44.28a42,42,0,0,0,42,40.64h1.09a42.8,42.8,0,0,0,29.48-13.83,41.72,41.72,0,0,0,11.16-30.45A42.82,42.82,0,0,0,183,356.8Zm29.84,41.13a29.39,29.39,0,0,1-7.88,21.35,29.88,29.88,0,0,1-20.63,9.7h-.48a29.17,29.17,0,0,1-29.24-28.51,29.15,29.15,0,1,1,58.23-2.67Z"/><path class="cls-1" d="M474.38,119a24.19,24.19,0,0,0-15.41-10h-.6c-.13,0-.61-.12-1-.12a21.07,21.07,0,0,0-3-.37h-315l-4.61-30.69c-3.27-23.9-24.14-42-48.53-42H45.37a23.78,23.78,0,1,0-.12,47.56H86.14c.61,0,1.21.61,1.46,1.58l31.3,213c4.37,28.52,29.36,50.11,58.11,50.11H387c27.78,0,52.17-19.9,58.11-47.31L478,136.71A22.33,22.33,0,0,0,474.38,119ZM292.64,288.49a16.84,16.84,0,0,1-4.13,5.7,17.78,17.78,0,0,1-5.94,3.28,26,26,0,0,1-6.92,1,27.17,27.17,0,0,1-7.16-1,17.14,17.14,0,0,1-6.06-3.28,15,15,0,0,1-4-5.7,20.72,20.72,0,0,1-1.45-8.13,21.59,21.59,0,0,1,1.45-8.37,15.11,15.11,0,0,1,10.19-8.86,26.49,26.49,0,0,1,14.08,0,17.51,17.51,0,0,1,5.94,3.16,14.24,14.24,0,0,1,4,5.7,21.59,21.59,0,0,1,1.45,8.37A20.72,20.72,0,0,1,292.64,288.49ZM322.72,196a38,38,0,0,1-4.24,9.34,47.21,47.21,0,0,1-6.92,8.25c-2.79,2.55-5.94,5.34-9.58,8.25-2.79,2.19-5,4-6.68,5.58a30.42,30.42,0,0,0-3.88,4.37,14.94,14.94,0,0,0-1.82,4,21.67,21.67,0,0,0-.48,5.1v5.82a1.48,1.48,0,0,1-1.46,1.46H261.82a1.48,1.48,0,0,1-1.46-1.46v-7.28a37.65,37.65,0,0,1,1.09-9.34,31.71,31.71,0,0,1,3.28-8.13,39,39,0,0,1,5.58-7.4,87.18,87.18,0,0,1,8.13-7.28,78.61,78.61,0,0,0,6.92-5.7,30.6,30.6,0,0,0,4.36-4.85,16.19,16.19,0,0,0,2.31-4.85,21.75,21.75,0,0,0,.73-5.95,10.72,10.72,0,0,0-3.4-8.25c-2.31-2.18-5.82-3.28-10.56-3.28a41.36,41.36,0,0,0-14.07,2.79q-7.83,2.93-16,6.92a1.21,1.21,0,0,1-1.1.12,1.3,1.3,0,0,1-.85-.73L236.83,162a1.5,1.5,0,0,1,.6-1.82,94.78,94.78,0,0,1,9.34-4.73c3.28-1.46,6.8-2.79,10.44-4a74.4,74.4,0,0,1,11-2.79,69.82,69.82,0,0,1,11-1,66.46,66.46,0,0,1,18.44,2.43,41.69,41.69,0,0,1,14.07,7.28,32.28,32.28,0,0,1,9,11.64,44.7,44.7,0,0,1,3.4,15.66A41.31,41.31,0,0,1,322.72,196Z"/></svg>