<svg id="Ebene_1" data-name="Ebene 1" xmlns="http://www.w3.org/2000/svg" viewBox="0 0 500 500"><defs><style>.cls-1{fill:#fff;}</style></defs><title>status</title><path class="cls-1" d="M479.89,47.73a3.44,3.44,0,0,0-3.79-.48L20.81,274a3.38,3.38,0,0,0-1.89,3.2,3.21,3.21,0,0,0,2.13,3.08L138,329.55l-.6.6a6,6,0,0,0-1.66,7l42.69,103.27A6.18,6.18,0,0,0,184,444.2h.47a6,6,0,0,0,5-3.32l-.12.48,48.73-66,120.7,46.24a4.25,4.25,0,0,0,1.31.24,3.64,3.64,0,0,0,1.54-.36,3.55,3.55,0,0,0,1.78-2.13L481,51.4A3.58,3.58,0,0,0,479.89,47.73ZM182.65,418.83l-34-82.28,265.7-222.66L198.66,358.6a6.19,6.19,0,0,0-1.3,2.49Z"/></svg>